#!OML:ASF X:\für Bonn\!DataBase\2005_08_11_Bastian_Final\c3d\Bastian.ASF
:FULLY-SPECIFIED
:DEGREES
269
root -0.47799 3.77079 18.6604 -606.917 -3.5287 -167.617
lowerback 65.6406 1.96183 17.5974
upperback 25.9392 -9.29011 6.63355
thorax 10.2324 -13.2141 1.29181
lowerneck -4.59153 -7.53763 -14.3256
upperneck -10.762 -8.25969 12.9538
head -1.21488 -3.54512 6.17172
rclavicle -5.08889e-014 -2.94201e-014
rhumerus -49.8143 58.7491 -115.93
rradius 28.4939
rwrist -32.5381
rhand -27.6524 -17.6115
rfingers 7.12502
rthumb -1.05016 -47.5886
lclavicle -5.08889e-014 -2.94201e-014
lhumerus -17.1045 -0.389407 80.3801
lradius 17.4873
lwrist 34.5834
lhand -20.7654 -6.04603
lfingers 7.12502
lthumb 5.60087 23.86
rfemur -38.93 -64.5911 -10.123
rtibia 150.908
rfoot -31.5845 9.38755
rtoes -22.6852
lfemur -68.2128 21.4994 -29.093
ltibia 118.002
lfoot 1.09811 -0.839097
ltoes 5.38619
270
root -0.487931 3.72492 18.6872 -607.407 -3.19258 -167.64
lowerback 65.3139 1.92593 17.5821
upperback 25.9132 -9.32627 6.69728
thorax 10.1977 -13.2435 1.36472
lowerneck -4.54916 -7.34258 -14.1672
upperneck -10.5053 -8.07234 12.4177
head -1.21138 -3.46551 5.98299
rclavicle 2.66371e-014 -4.85035e-014
rhumerus -48.5941 56.9849 -114.49
rradius 28.1364
rwrist -31.4908
rhand -28.5411 -18.2217
rfingers 7.12502
rthumb -1.90852 -48.1929
lclavicle 2.66371e-014 -4.85035e-014
lhumerus -17.7839 -0.552624 80.64
lradius 18.0134
lwrist 35.0688
lhand -20.7658 -5.74735
lfingers 7.12502
lthumb 5.6005 24.1586
rfemur -39.4805 -64.4165 -9.45038
rtibia 150.819
rfoot -31.1398 9.53586
rtoes -23.4985
lfemur -67.3676 20.9184 -28.5798
ltibia 115.913
lfoot 1.70522 -1.20573
ltoes 3.69828
271
root -0.496192 3.67808 18.7144 -607.877 -2.86672 -167.673
lowerback 64.9586 1.91205 17.5489
upperback 25.9096 -9.36187 6.76386
thorax 10.19 -13.2749 1.43946
lowerneck -4.56666 -7.17549 -14.1102
upperneck -10.2097 -7.90695 11.9853
head -1.17227 -3.39372 5.83868
rclavicle -7.11649e-014 -2.14687e-014
rhumerus -47.2257 55.0431 -112.814
rradius 27.6328
rwrist -30.0562
rhand -29.2105 -18.4662
rfingers 7.12502
rthumb -2.555 -48.4307
lclavicle -7.11649e-014 -2.14687e-014
lhumerus -18.4269 -0.606562 80.8755
lradius 18.5146
lwrist 35.4227
lhand -20.7063 -5.46265
lfingers 7.12502
lthumb 5.6579 24.4418
rfemur -40.0119 -64.3254 -8.81598
rtibia 150.744
rfoot -30.8359 9.55038
rtoes -24.8657
lfemur -66.5155 20.3209 -28.0444
ltibia 113.816
lfoot 2.3141 -1.59062
ltoes 2.84073
272
root -0.501093 3.63026 18.7376 -608.356 -2.55082 -167.706
lowerback 64.5844 1.90078 17.5104
upperback 25.9188 -9.39281 6.80761
thorax 10.1935 -13.2952 1.48621
lowerneck -4.54747 -6.99954 -14.0255
upperneck -9.91699 -7.73355 11.5908
head -1.13837 -3.32172 5.70345
rclavicle -1.51076e-014 -3.97569e-015
rhumerus -46.0187 53.0664 -111.228
rradius 27.1126
rwrist -28.424
rhand -29.7526 -18.4472
rfingers 7.12502
rthumb -3.07852 -48.4047
lclavicle -1.51076e-014 -3.97569e-015
lhumerus -19.084 -0.640321 81.0573
lradius 19.0225
lwrist 35.7233
lhand -20.6846 -5.17285
lfingers 7.12502
lthumb 5.67887 24.7311
rfemur -40.3395 -64.3726 -8.37342
rtibia 150.692
rfoot -30.6086 9.50716
rtoes -26.3944
lfemur -65.6148 19.7889 -27.5199
ltibia 111.727
lfoot 2.83635 -2.08984
ltoes 1.78383
273
root -0.504381 3.581 18.7587 -608.814 -2.26101 -167.74
lowerback 64.175 1.91504 17.4298
upperback 25.946 -9.4264 6.85823
thorax 10.2174 -13.3208 1.55142
lowerneck -4.54214 -6.81445 -13.9791
upperneck -9.61618 -7.54261 11.2089
head -1.09874 -3.23953 5.57838
rclavicle -5.24792e-014 5.84427e-014
rhumerus -44.8095 50.9437 -109.524
rradius 26.5513
rwrist -26.4766
rhand -30.1003 -18.164
rfingers 7.12502
rthumb -3.41429 -48.1164
lclavicle -5.24792e-014 5.84427e-014
lhumerus -19.7074 -0.649125 81.2288
lradius 19.5179
lwrist 36.0234
lhand -20.7026 -4.88236
lfingers 7.12502
lthumb 5.66153 25.022
rfemur -40.4141 -64.6721 -8.23966
rtibia 150.661
rfoot -30.4118 9.43898
rtoes -27.8153
lfemur -64.7364 19.2461 -27.0492
ltibia 109.648
lfoot 3.32527 -2.58311
ltoes 0.348231
274
root -0.504965 3.53153 18.778 -609.246 -1.9444 -167.78
lowerback 63.746 1.92895 17.3713
upperback 25.9852 -9.4472 6.88497
thorax 10.2535 -13.3283 1.57362
lowerneck -4.50869 -6.63331 -13.934
upperneck -9.35795 -7.35222 10.8994
head -1.07077 -3.15809 5.4778
rclavicle 4.33351e-014 -2.06736e-014
rhumerus -43.865 48.9032 -107.983
rradius 26.0913
rwrist -24.5401
rhand -30.2469 -17.5163
rfingers 7.12502
rthumb -3.55588 -47.4663
lclavicle 4.33351e-014 -2.06736e-014
lhumerus -20.3319 -0.708503 81.3552
lradius 20.0189
lwrist 36.346
lhand -20.644 -4.70592
lfingers 7.12502
lthumb 5.71802 25.1969
rfemur -40.5803 -64.9668 -7.96311
rtibia 150.639
rfoot -30.1553 9.39712
rtoes -28.6716
lfemur -63.8855 18.7669 -26.5583
ltibia 107.587
lfoot 3.86662 -3.19065
ltoes -1.8591
275
root -0.50366 3.48109 18.8002 -609.688 -1.6791 -167.816
lowerback 63.4273 1.887 17.3091
upperback 25.9632 -9.47143 6.85197
thorax 10.2045 -13.3171 1.56045
lowerneck -4.38004 -6.43074 -13.8009
upperneck -9.09529 -7.15432 10.5663
head -1.06089 -3.08042 5.35888
rclavicle 9.93923e-015 2.94201e-014
rhumerus -43.3026 46.8875 -106.677
rradius 25.8296
rwrist -22.608
rhand -30.3292 -16.5927
rfingers 7.12502
rthumb -3.63541 -46.5415
lclavicle 9.93923e-015 2.94201e-014
lhumerus -21.037 -0.813352 81.4018
lradius 20.5696
lwrist 36.7029
lhand -20.6301 -4.41074
lfingers 7.12502
lthumb 5.73146 25.4917
rfemur -40.8094 -65.235 -7.65472
rtibia 150.607
rfoot -29.7388 9.44698
rtoes -29.1377
lfemur -62.9668 18.2484 -26.0908
ltibia 105.493
lfoot 4.34299 -3.66112
ltoes -2.02124
276
root -0.500919 3.42962 18.8244 -610.095 -1.41609 -167.848
lowerback 63.1628 1.81809 17.2391
upperback 25.8935 -9.49334 6.80332
thorax 10.0928 -13.296 1.55145
lowerneck -4.25341 -6.21653 -13.7135
upperneck -8.81696 -6.93737 10.28
head -1.04328 -2.9931 5.26173
rclavicle 1.70955e-014 -8.11041e-014
rhumerus -43.1983 45.1403 -105.671
rradius 25.8378
rwrist -20.9628
rhand -30.3551 -15.6419
rfingers 7.12502
rthumb -3.66039 -45.5902
lclavicle 1.70955e-014 -8.11041e-014
lhumerus -21.8171 -1.02535 81.4572
lradius 21.1718
lwrist 37.1482
lhand -20.6282 -4.16284
lfingers 7.12502
lthumb 5.73329 25.7396
rfemur -41.5024 -65.3074 -6.86549
rtibia 150.568
rfoot -28.8188 9.76523
rtoes -28.3542
lfemur -62.0764 17.7143 -25.6447
ltibia 103.382
lfoot 4.79975 -4.08475
ltoes -2.9355
277
root -0.495927 3.37783 18.8506 -610.509 -1.14714 -167.874
lowerback 63.0146 1.72733 17.1884
upperback 25.7657 -9.4914 6.7521
thorax 9.90987 -13.2608 1.54907
lowerneck -4.09036 -6.00147 -13.6034
upperneck -8.55028 -6.72428 9.98187
head -1.03472 -2.90872 5.15825
rclavicle 5.96354e-016 -3.18055e-015
rhumerus -43.6968 43.8842 -105.126
rradius 26.3221
rwrist -19.8668
rhand -30.4386 -14.8433
rfingers 7.12502
rthumb -3.74098 -44.7902
lclavicle 5.96354e-016 -3.18055e-015
lhumerus -22.6402 -1.18305 81.4992
lradius 21.8276
lwrist 37.5128
lhand -20.5728 -3.85652
lfingers 7.12502
lthumb 5.78681 26.0445
rfemur -42.5076 -65.1747 -5.64998
rtibia 150.494
rfoot -27.6751 10.0711
rtoes -27.5221
lfemur -61.138 17.1947 -25.1661
ltibia 101.265
lfoot 5.19942 -4.52034
ltoes -3.7763
